<?xml version="1.0" encoding="utf-8"?>
<!-- Generator: Adobe Illustrator 28.3.0, SVG Export Plug-In . SVG Version: 6.00 Build 0)  -->
<svg version="1.0" id="katman_1" xmlns="http://www.w3.org/2000/svg" xmlns:xlink="http://www.w3.org/1999/xlink" x="0px" y="0px"
	viewBox="0 0 841.89 595.28" style="enable-background:new 0 0 841.89 595.28;" xml:space="preserve">
<style type="text/css">
	.st0{fill:#403E6B;}
</style>
<g id="Page-1">
	<g id="logo_color">
		<path id="Path" class="st0" d="M183.54,312.77l41.3-61.46c1.72-2.7,4.92-4.42,8.11-4.42h19.67l-26.8,41.79
			c-0.49,0.74-0.49,1.97-0.25,2.7l32.21,62.2h-18.19c-3.69,0-6.88-1.97-8.6-5.17l-20.16-37.61c-0.49-0.98-1.72-0.98-2.46-0.24
			l-29.5,43.27h-17.95V192.07h20.9v119.97C181.82,313.27,183.05,313.51,183.54,312.77z"/>
		<path id="Path1" class="st0" d="M285.57,402.76h-23.85l34.66-67.61c0.49-0.74,0.49-1.72,0-2.46l-43.51-85.55h17.21
			c3.69,0,6.89,1.97,8.61,5.17l29.5,56.05c0.49,0.98,1.96,0.98,2.46,0l27.04-55.8c1.72-3.45,5.17-5.65,8.85-5.65h17.21
			L285.57,402.76z"/>
		<path id="Path2" class="st0" d="M401.11,210.75h33.93v-18.44h-35.15c-22.38,0.25-36.14,16.96-36.14,39.34v122.43h20.9v-89.24
			h28.51l8.61-17.95h-37.12v-16.72C384.64,218.86,390.79,211,401.11,210.75z"/>
		<path id="Path3" class="st0" d="M112,290.41c-16.22-3.93-22.37-5.9-22.37-14.75c0-8.85,7.62-12.29,19.67-12.29
			c10.57,0,18.68,3.69,25.08,8.12l8.36-16.72c-8.36-5.9-20.41-10.08-33.44-10.08c-24.83,0-40.57,11.8-40.57,32.21
			c0,16.72,10.57,25.57,35.65,31.22c16.47,3.93,22.87,7.13,22.87,15.73c0,9.09-8.85,13.52-21.39,13.52
			c-12.05,0-22.37-3.93-29.99-10.08l-8.61,17.21c9.59,6.89,23.6,11.31,38.6,11.31c26.31,0,42.77-13.03,42.77-33.19
			C148.14,306.63,136.83,296.3,112,290.41z"/>
		<path id="Path4" class="st0" d="M490.6,336.37h-6.39c-10.82,0-18.44-8.11-18.44-19.91v-124.4h-20.89v123.17
			c0,22.62,12.05,39.33,36.38,39.58L490.6,336.37z"/>
		<path id="Path5" class="st0" d="M774.79,247.13h-32.94c-3.69,0-7.13,2.21-8.85,5.41l-28.27,57.77c-0.49,0.98-1.97,0.98-2.46,0
			l-28.51-58.75c-0.98-1.73-3.45-1.73-4.43,0l-28.51,58.75c-0.49,0.98-1.97,0.98-2.46,0l-28.27-57.77
			c-1.72-3.45-5.16-5.41-8.85-5.41h-16.96l52.61,105.72c0.98,1.72,3.44,1.72,4.42,0l29.01-57.78c0.49-0.98,1.97-0.98,2.46,0
			l28.27,57.53c0.98,1.72,3.44,1.72,4.42,0l41.79-82.6c1.72-3.2,4.18-5.9,6.89-8.12L774.79,247.13z"/>
		<path id="Shape" class="st0" d="M540.26,245.88c31.96,0,51.38,21.39,51.38,55.56c0,34.17-19.17,55.56-51.38,55.56
			s-51.38-21.39-51.38-55.56C488.88,267.27,508.3,245.88,540.26,245.88z M540.26,338.57c19.67,0,30.49-13.03,30.49-37.12
			c0-24.1-10.82-37.13-30.49-37.13s-30.48,13.03-30.48,37.13C509.78,325.54,520.59,338.57,540.26,338.57z"/>
	</g>
</g>
</svg>
