<svg width="152" height="34" viewBox="0 0 152 34" fill="#01CCA7" xmlns="http://www.w3.org/2000/svg">
<g clip-path="url(#clip0_70_151)">
<path d="M15.7613 8.21905L7.19402 16.7816C5.54841 18.4263 2.87982 18.4263 1.23421 16.7816C-0.411403 15.1369 -0.411403 12.4698 1.23421 10.8251L6.82213 5.24133C8.46774 3.59664 11.1363 3.59664 12.7819 5.24133L15.7613 8.21905Z" />
<path d="M4.25586 25.757L12.8232 17.1945C14.4688 15.5498 17.1374 15.5498 18.783 17.1945C20.4286 18.8392 20.4286 21.5063 18.783 23.151L13.1961 28.7347C11.5505 30.3794 8.8819 30.3794 7.23629 28.7347L4.25691 25.757H4.25586Z" />
</g>
<path d="M34.9805 21.9364C35.2031 24.0021 37.0952 27.5433 42.5862 27.5433C47.3722 27.5433 49.6725 24.5185 49.6725 21.5675C49.6725 18.9116 47.8545 16.7353 44.2557 15.9976L41.6587 15.4443C40.6569 15.2598 39.9891 14.7065 39.9891 13.8212C39.9891 12.7884 41.0279 12.0137 42.3265 12.0137C44.4041 12.0137 45.1833 13.3786 45.3317 14.4483L49.4499 13.5261C49.2273 11.5711 47.4835 8.28813 42.2894 8.28813C38.3567 8.28813 35.4628 10.9809 35.4628 14.227C35.4628 16.7722 37.0581 18.8748 40.5827 19.6494L42.9943 20.2027C44.4041 20.4978 44.9607 21.1618 44.9607 21.9733C44.9607 22.9324 44.1815 23.7808 42.5491 23.7808C40.3972 23.7808 39.3213 22.4528 39.21 21.0142L34.9805 21.9364Z" />
<path d="M57.0904 16.3295C57.2017 14.3376 58.426 12.7884 60.5037 12.7884C62.8782 12.7884 63.8799 14.3745 63.8799 16.4033V26.99H68.8143V15.5549C68.8143 11.5711 66.6625 8.3619 62.0248 8.3619C60.2811 8.3619 58.2776 8.9521 57.0904 10.3538V0.0253906L52.156 1.26584V26.99H57.0904V16.3295Z" />
<path d="M80.5377 23.0799C78.1261 23.0799 75.9001 21.3093 75.9001 17.9157C75.9001 14.4852 78.1261 12.7515 80.5377 12.7515C82.9493 12.7515 85.1753 14.4852 85.1753 17.9157C85.1753 21.3462 82.9493 23.0799 80.5377 23.0799ZM80.5377 8.28813C75.0838 8.28813 70.9656 12.3088 70.9656 17.9157C70.9656 23.4857 75.0838 27.5433 80.5377 27.5433C85.9916 27.5433 90.1098 23.4857 90.1098 17.9157C90.1098 12.3088 85.9916 8.28813 80.5377 8.28813Z" />
<path d="M97.4552 33.9985V25.2194C98.3456 26.4366 100.201 27.4326 102.724 27.4326C107.881 27.4326 111.331 23.375 111.331 17.8788C111.331 12.4933 108.252 8.43568 102.909 8.43568C100.164 8.43568 98.123 9.65296 97.3068 11.0547L96.29 9.06276L92.5208 9.89272V33.9985H97.4552ZM106.471 17.9157C106.471 21.1618 104.467 23.043 101.944 23.043C99.4216 23.043 97.381 21.1249 97.381 17.9157C97.381 14.7065 99.4216 12.8253 101.944 12.8253C104.467 12.8253 106.471 14.7065 106.471 17.9157Z" />
<path d="M121.471 4.3412C122.287 4.3412 123.467 4.3412 123.559 4.3412V0.394263C123.151 0.209827 121.619 0.0253906 120.58 0.0253906C116.536 0.0253906 113.939 2.68127 113.939 6.77575V8.84144V13.0466V26.99H118.911V13.5184H122.744V8.84144H118.911V6.84953C118.911 4.82073 120.358 4.3412 121.471 4.3412Z" />
<path d="M130.429 26.99V0.0253906L125.494 1.15045V26.99H130.429Z" />
<path d="M142.427 23.0799C140.015 23.0799 137.789 21.3093 137.789 17.9157C137.789 14.4852 140.015 12.7515 142.427 12.7515C144.839 12.7515 147.065 14.4852 147.065 17.9157C147.065 21.3462 144.839 23.0799 142.427 23.0799ZM142.427 8.28813C136.973 8.28813 132.855 12.3088 132.855 17.9157C132.855 23.4857 136.973 27.5433 142.427 27.5433C147.881 27.5433 151.999 23.4857 151.999 17.9157C151.999 12.3088 147.881 8.28813 142.427 8.28813Z" />
<rect x="120.561" width="2.99998" height="0.807686" />
<defs>
<clipPath id="clip0_70_151">
<rect width="20.016" height="25.9613"  transform="translate(0 4.00781)"/>
</clipPath>
</defs>
</svg>
